<svg width="33" height="32" viewBox="0 0 33 32" fill="none"
  xmlns="http://www.w3.org/2000/svg"
  xmlns:rdf="http://www.w3.org/1999/02/22-rdf-syntax-ns#"
  xmlns:cc="http://creativecommons.org/ns#"
  xmlns:dc="http://purl.org/dc/elements/1.1/">
<metadata>
<rdf:RDF>
<cc:Work rdf:about="">
<cc:license rdf:resource="http://creativecommons.org/publicdomain/zero/1.0/" />
<dc:creator>
<cc:Agent>
<dc:title>AdriaanTV</dc:title>
</cc:Agent>
</dc:creator>
</cc:Work>
<cc:License rdf:about="http://creativecommons.org/publicdomain/zero/1.0/">
<cc:permits rdf:resource="http://creativecommons.org/ns#Reproduction" />
<cc:permits rdf:resource="http://creativecommons.org/ns#Distribution" />
<cc:permits rdf:resource="http://creativecommons.org/ns#DerivativeWorks" />
</cc:License>
</rdf:RDF>
</metadata>
<circle cx="17" cy="16" r="13" fill="white"/>
<mask id="mask0_328_120" style="mask-type:alpha" maskUnits="userSpaceOnUse" x="7" y="6" width="20" height="23">
<path d="M16.9702 18.2001C20.1293 18.2001 22.6902 15.6391 22.6902 12.4801C22.6902 9.321 20.1293 6.76007 16.9702 6.76007C13.8112 6.76007 11.2502 9.321 11.2502 12.4801C11.2502 15.6391 13.8112 18.2001 16.9702 18.2001Z" fill="#A8A8A8"/>
<mask id="mask1_328_120" style="mask-type:alpha" maskUnits="userSpaceOnUse" x="2" y="5" width="30" height="24">
<path d="M32 5H2V29H32V5Z" fill="#D9D9D9"/>
</mask>
<g mask="url(#mask1_328_120)">
<path d="M16.9702 38.5355C22.25 38.5355 26.5302 34.2554 26.5302 28.9755C26.5302 23.6957 22.25 19.4155 16.9702 19.4155C11.6903 19.4155 7.41016 23.6957 7.41016 28.9755C7.41016 34.2554 11.6903 38.5355 16.9702 38.5355Z" fill="#A8A8A8"/>
</g>
</mask>
<g mask="url(#mask0_328_120)">
<circle cx="17" cy="16" r="13" fill="#D9D9D9"/>
</g>
</svg>
