<svg width="500" height="105" viewBox="0 0 500 105" fill="none"
  xmlns="http://www.w3.org/2000/svg"
  xmlns:rdf="http://www.w3.org/1999/02/22-rdf-syntax-ns#"
  xmlns:cc="http://creativecommons.org/ns#"
  xmlns:dc="http://purl.org/dc/elements/1.1/">
<metadata>
<rdf:RDF>
<cc:Work rdf:about="">
<cc:license rdf:resource="http://creativecommons.org/publicdomain/zero/1.0/" />
<dc:creator>
<cc:Agent>
<dc:title>AdriaanTV</dc:title>
</cc:Agent>
</dc:creator>
</cc:Work>
<cc:License rdf:about="http://creativecommons.org/publicdomain/zero/1.0/">
<cc:permits rdf:resource="http://creativecommons.org/ns#Reproduction" />
<cc:permits rdf:resource="http://creativecommons.org/ns#Distribution" />
<cc:permits rdf:resource="http://creativecommons.org/ns#DerivativeWorks" />
</cc:License>
</rdf:RDF>
</metadata>
<path d="M484.322 76.6836C479.833 76.6836 476.313 75.0544 473.761 71.7959H473.214C473.578 74.986 473.761 76.8317 473.761 77.333V92.8164H463.336V37.7871H471.812L473.282 42.7432H473.761C476.199 38.9606 479.811 37.0693 484.596 37.0693C489.107 37.0693 492.639 38.8125 495.191 42.2988C497.743 45.7852 499.02 50.6273 499.02 56.8252C499.02 60.904 498.416 64.4473 497.208 67.4551C496.023 70.4629 494.326 72.7529 492.115 74.3252C489.905 75.8975 487.307 76.6836 484.322 76.6836ZM481.246 45.4092C478.671 45.4092 476.791 46.2067 475.606 47.8018C474.422 49.374 473.806 51.9831 473.761 55.6289V56.7568C473.761 60.8584 474.365 63.7979 475.572 65.5752C476.803 67.3525 478.74 68.2412 481.383 68.2412C486.054 68.2412 488.39 64.3903 488.39 56.6885C488.39 52.9287 487.809 50.1146 486.646 48.2461C485.507 46.3548 483.707 45.4092 481.246 45.4092Z" fill="#03A9F4"/>
<path d="M441.025 76.6836C436.536 76.6836 433.016 75.0544 430.464 71.7959H429.917C430.282 74.986 430.464 76.8317 430.464 77.333V92.8164H420.039V37.7871H428.516L429.985 42.7432H430.464C432.902 38.9606 436.514 37.0693 441.299 37.0693C445.811 37.0693 449.342 38.8125 451.895 42.2988C454.447 45.7852 455.723 50.6273 455.723 56.8252C455.723 60.904 455.119 64.4473 453.911 67.4551C452.726 70.4629 451.029 72.7529 448.818 74.3252C446.608 75.8975 444.01 76.6836 441.025 76.6836ZM437.949 45.4092C435.374 45.4092 433.494 46.2067 432.31 47.8018C431.125 49.374 430.509 51.9831 430.464 55.6289V56.7568C430.464 60.8584 431.068 63.7979 432.275 65.5752C433.506 67.3525 435.443 68.2412 438.086 68.2412C442.757 68.2412 445.093 64.3903 445.093 56.6885C445.093 52.9287 444.512 50.1146 443.35 48.2461C442.21 46.3548 440.41 45.4092 437.949 45.4092Z" fill="#03A9F4"/>
<path d="M404.992 76L402.976 70.8047H402.702C400.948 73.015 399.136 74.5531 397.268 75.4189C395.422 76.262 393.007 76.6836 390.021 76.6836C386.353 76.6836 383.459 75.6354 381.34 73.5391C379.243 71.4427 378.195 68.4577 378.195 64.584C378.195 60.528 379.608 57.543 382.434 55.6289C385.282 53.6921 389.566 52.6211 395.285 52.416L401.916 52.2109V50.5361C401.916 46.6624 399.934 44.7256 395.969 44.7256C392.915 44.7256 389.326 45.6484 385.202 47.4941L381.75 40.4531C386.148 38.1517 391.024 37.001 396.379 37.001C401.506 37.001 405.437 38.1175 408.171 40.3506C410.905 42.5837 412.272 45.9788 412.272 50.5361V76H404.992ZM401.916 58.2949L397.883 58.4316C394.852 58.5228 392.596 59.0697 391.115 60.0723C389.634 61.0749 388.894 62.6016 388.894 64.6523C388.894 67.5918 390.58 69.0615 393.952 69.0615C396.368 69.0615 398.293 68.3665 399.729 66.9766C401.187 65.5866 401.916 63.7409 401.916 61.4395V58.2949Z" fill="#03A9F4"/>
<path d="M359.294 71.1123C359.294 70.0413 359.442 69.1413 359.738 68.4121C360.057 67.6602 360.49 67.0563 361.037 66.6006C361.584 66.1449 362.222 65.8145 362.951 65.6094C363.68 65.4043 364.466 65.3018 365.31 65.3018C366.107 65.3018 366.859 65.4043 367.565 65.6094C368.295 65.8145 368.933 66.1449 369.479 66.6006C370.026 67.0563 370.459 67.6602 370.778 68.4121C371.097 69.1413 371.257 70.0413 371.257 71.1123C371.257 72.1377 371.097 73.015 370.778 73.7441C370.459 74.4733 370.026 75.0771 369.479 75.5557C368.933 76.0342 368.295 76.376 367.565 76.5811C366.859 76.8089 366.107 76.9229 365.31 76.9229C364.466 76.9229 363.68 76.8089 362.951 76.5811C362.222 76.376 361.584 76.0342 361.037 75.5557C360.49 75.0771 360.057 74.4733 359.738 73.7441C359.442 73.015 359.294 72.1377 359.294 71.1123Z" fill="#03A9F4"/>
<path d="M339.923 27.9092C339.923 24.514 341.814 22.8164 345.597 22.8164C349.379 22.8164 351.271 24.514 351.271 27.9092C351.271 29.527 350.792 30.7917 349.835 31.7031C348.901 32.5918 347.488 33.0361 345.597 33.0361C341.814 33.0361 339.923 31.3271 339.923 27.9092ZM350.792 76H340.367V37.7871H350.792V76Z" fill="black"/>
<path d="M319.859 76.6836C307.965 76.6836 302.018 70.1553 302.018 57.0986C302.018 50.6045 303.635 45.6484 306.871 42.2305C310.107 38.7897 314.744 37.0693 320.782 37.0693C325.203 37.0693 329.168 37.9352 332.677 39.667L329.601 47.7334C327.96 47.0726 326.433 46.5371 325.021 46.127C323.608 45.694 322.195 45.4775 320.782 45.4775C315.359 45.4775 312.647 49.3285 312.647 57.0303C312.647 64.5042 315.359 68.2412 320.782 68.2412C322.787 68.2412 324.645 67.9792 326.354 67.4551C328.062 66.9082 329.771 66.0651 331.48 64.9258V73.8467C329.794 74.9176 328.085 75.6582 326.354 76.0684C324.645 76.4785 322.48 76.6836 319.859 76.6836Z" fill="black"/>
<path d="M283.501 27.9092C283.501 24.514 285.392 22.8164 289.175 22.8164C292.957 22.8164 294.849 24.514 294.849 27.9092C294.849 29.527 294.37 30.7917 293.413 31.7031C292.479 32.5918 291.066 33.0361 289.175 33.0361C285.392 33.0361 283.501 31.3271 283.501 27.9092ZM294.37 76H283.945V37.7871H294.37V76Z" fill="black"/>
<path d="M270.624 68.3779C272.447 68.3779 274.634 67.9792 277.187 67.1816V74.9404C274.589 76.1025 271.399 76.6836 267.616 76.6836C263.446 76.6836 260.404 75.6354 258.49 73.5391C256.599 71.4199 255.653 68.2526 255.653 64.0371V45.6143H250.663V41.2051L256.405 37.7188L259.413 29.6523H266.078V37.7871H276.776V45.6143H266.078V64.0371C266.078 65.5182 266.488 66.612 267.309 67.3184C268.152 68.0247 269.257 68.3779 270.624 68.3779Z" fill="black"/>
<path d="M241.066 37.0693C242.479 37.0693 243.653 37.1719 244.587 37.377L243.801 47.1523C242.958 46.9245 241.932 46.8105 240.725 46.8105C237.398 46.8105 234.8 47.665 232.932 49.374C231.086 51.083 230.163 53.4756 230.163 56.5518V76H219.738V37.7871H227.634L229.172 44.2129H229.685C230.869 42.071 232.465 40.3506 234.47 39.0518C236.498 37.7301 238.697 37.0693 241.066 37.0693Z" fill="black"/>
<path d="M203.691 76L201.675 70.8047H201.401C199.647 73.015 197.835 74.5531 195.967 75.4189C194.121 76.262 191.706 76.6836 188.721 76.6836C185.052 76.6836 182.158 75.6354 180.039 73.5391C177.943 71.4427 176.895 68.4577 176.895 64.584C176.895 60.528 178.307 57.543 181.133 55.6289C183.981 53.6921 188.265 52.6211 193.984 52.416L200.615 52.2109V50.5361C200.615 46.6624 198.633 44.7256 194.668 44.7256C191.615 44.7256 188.026 45.6484 183.901 47.4941L180.449 40.4531C184.847 38.1517 189.723 37.001 195.078 37.001C200.205 37.001 204.136 38.1175 206.87 40.3506C209.604 42.5837 210.972 45.9788 210.972 50.5361V76H203.691ZM200.615 58.2949L196.582 58.4316C193.551 58.5228 191.296 59.0697 189.814 60.0723C188.333 61.0749 187.593 62.6016 187.593 64.6523C187.593 67.5918 189.279 69.0615 192.651 69.0615C195.067 69.0615 196.992 68.3665 198.428 66.9766C199.886 65.5866 200.615 63.7409 200.615 61.4395V58.2949Z" fill="black"/>
<path d="M148.885 49.5449H152.371C155.63 49.5449 158.068 48.9069 159.686 47.6309C161.303 46.332 162.112 44.4521 162.112 41.9912C162.112 39.5075 161.429 37.6732 160.062 36.4883C158.717 35.3034 156.598 34.7109 153.704 34.7109H148.885V49.5449ZM172.811 41.6152C172.811 46.9928 171.124 51.1058 167.752 53.9541C164.402 56.8024 159.629 58.2266 153.431 58.2266H148.885V76H138.289V26.0293H154.251C160.312 26.0293 164.915 27.3395 168.06 29.96C171.227 32.5576 172.811 36.4427 172.811 41.6152Z" fill="black"/>
<path d="M114 51C114 67.0163 101.016 80 85 80C68.9837 80 56 67.0163 56 51C56 34.9837 68.9837 22 85 22C101.016 22 114 34.9837 114 51Z" fill="#03A9F4"/>
<path d="M37 95.5C37 100.747 32.7467 105 27.5 105C22.2533 105 18 100.747 18 95.5C18 90.2533 22.2533 86 27.5 86C32.7467 86 37 90.2533 37 95.5Z" fill="#03A9F4"/>
<path d="M37 18.5C37 28.7173 28.7173 37 18.5 37C8.28273 37 0 28.7173 0 18.5C0 8.28273 8.28273 0 18.5 0C28.7173 0 37 8.28273 37 18.5Z" fill="#03A9F4"/>
<path fill-rule="evenodd" clip-rule="evenodd" d="M85.0001 53L18.0001 21L20.5859 15.5858L87.5859 47.5858L85.0001 53Z" fill="#03A9F4"/>
<path fill-rule="evenodd" clip-rule="evenodd" d="M85.0001 53L28.0001 98L24.2822 93.2907L81.2822 48.2907L85.0001 53Z" fill="#03A9F4"/>
<path fill-rule="evenodd" clip-rule="evenodd" d="M23 19L30 96L24.0247 96.5432L17.0247 19.5432L23 19Z" fill="#03A9F4"/>
</svg>
